<svg width="306" height="80" viewBox="0 0 306 80" fill="none" xmlns="http://www.w3.org/2000/svg">
<path d="M39.8846 0L0 47.8615H35.8962L31.9077 79.7692L71.7923 31.9077H35.8962L39.8846 0Z" fill="white"/>
<path d="M128.259 33.3621V48.1262H106.963V68.3487H90.2306V8.39722H132.733V23.1614H106.963V33.3621H128.259Z" fill="white"/>
<path d="M156.07 8.39722V68.3487H140.679V8.39722H156.07Z" fill="white"/>
<path d="M181.464 21.3718C183.85 21.3718 186.177 21.9087 188.444 22.9824C190.77 23.9965 192.679 25.3089 194.17 26.9195V22.714H209.561V68.3487H194.17V60.7429C193.037 63.2483 191.307 65.366 188.98 67.0959C186.654 68.8259 183.85 69.6909 180.569 69.6909C177.169 69.6909 173.978 68.8259 170.995 67.0959C168.012 65.366 165.567 62.7114 163.658 59.1322C161.808 55.4934 160.884 50.9299 160.884 45.4418C160.884 40.3117 161.808 35.957 163.658 32.3778C165.567 28.7986 168.072 26.0844 171.174 24.2351C174.336 22.3262 177.766 21.3718 181.464 21.3718ZM184.685 36.4044C182.478 36.4044 180.629 37.2992 179.138 39.0888C177.706 40.8784 176.99 42.9961 176.99 45.4418C176.99 47.8876 177.736 49.9457 179.227 51.6159C180.718 53.2862 182.687 54.1214 185.133 54.1214C186.445 54.1214 187.787 53.7933 189.159 53.1371C190.531 52.4213 191.695 51.3773 192.649 50.0053C193.663 48.5736 194.17 46.7542 194.17 44.547V40.1625C192.858 39.0888 191.367 38.194 189.696 37.4781C188.086 36.7623 186.415 36.4044 184.685 36.4044Z" fill="white"/>
<path d="M233.434 21.3718C236.417 21.3718 239.161 21.8192 241.666 22.714C244.231 23.5491 246.289 24.7124 247.84 26.2037V38.2835C246.289 37.329 244.529 36.4342 242.561 35.5991C240.592 34.7043 238.475 34.2569 236.208 34.2569C234.776 34.2569 233.494 34.5551 232.36 35.1517C231.286 35.6885 230.75 36.5535 230.75 37.7466C230.75 38.5817 231.078 39.2081 231.734 39.6257C232.39 40.0432 233.673 40.4906 235.581 40.9679L238.355 41.6837C246.289 43.7119 250.256 47.9771 250.256 54.4793C250.256 57.462 249.361 60.1165 247.572 62.443C245.842 64.7098 243.545 66.4994 240.682 67.8118C237.878 69.0645 234.836 69.6909 231.555 69.6909C228.155 69.6909 224.993 69.2136 222.07 68.2592C219.147 67.2451 216.642 66.0222 214.554 64.5905V52.6002C216.701 53.9126 219.117 55.0162 221.802 55.911C224.546 56.8058 226.991 57.2532 229.139 57.2532C230.869 57.2532 232.122 57.0444 232.897 56.6268C233.732 56.2092 234.15 55.4636 234.15 54.3898C234.15 53.5547 233.673 52.9283 232.718 52.5107C231.764 52.0335 230.392 51.4966 228.602 50.9001L224.039 49.4684C220.698 48.4543 218.252 46.8735 216.701 44.726C215.15 42.5188 214.375 39.8344 214.375 36.6728C214.375 33.5112 215.21 30.797 216.88 28.5302C218.55 26.2633 220.817 24.5036 223.681 23.2509C226.604 21.9981 229.855 21.3718 233.434 21.3718Z" fill="white"/>
<path d="M282.004 21.3718C286.657 21.3718 290.445 22.9526 293.368 26.1142C296.35 29.2758 297.841 33.9586 297.841 40.1625V68.3487H282.451L282.362 42.5785C282.362 40.3117 281.735 38.7309 280.482 37.8361C279.23 36.8816 277.828 36.4044 276.277 36.4044C274.607 36.4044 273.205 36.8518 272.071 37.7466C270.938 38.5817 269.954 39.5958 269.119 40.7889V68.3487H253.728V8.39721H269.119V28.6196C270.55 26.6511 272.28 24.951 274.308 23.5193C276.396 22.0876 278.961 21.3718 282.004 21.3718Z" fill="white"/>
<path d="M297.067 8.74624V10.6501H294.776V16.4424H292.6V10.6501H290.308V8.74624H297.067Z" fill="white"/>
<path d="M306 8.63086V16.477H303.825V12.6693L302.231 14.4578H301.579L299.985 12.6693V16.477H297.81V8.63086H298.578L301.905 11.977L305.232 8.63086H306Z" fill="white"/>
</svg>
