<svg width="60" height="60" viewBox="0 0 60 60" fill="none" xmlns="http://www.w3.org/2000/svg">
<g clip-path="url(#clip0_78_28)">
<line x1="70.3536" y1="-65.6464" x2="-9.64645" y2="14.3536" stroke="#2E2E2E"/>
<line x1="70.3536" y1="-59.6464" x2="-9.64645" y2="20.3536" stroke="#2E2E2E"/>
<line x1="70.3536" y1="-53.6464" x2="-9.64645" y2="26.3536" stroke="#2E2E2E"/>
<line x1="70.3536" y1="-47.6464" x2="-9.64645" y2="32.3536" stroke="#2E2E2E"/>
<line x1="70.3536" y1="-41.6464" x2="-9.64645" y2="38.3536" stroke="#2E2E2E"/>
<line x1="70.3536" y1="-35.6464" x2="-9.64645" y2="44.3536" stroke="#2E2E2E"/>
<line x1="70.3536" y1="-29.6464" x2="-9.64645" y2="50.3536" stroke="#2E2E2E"/>
<line x1="70.3536" y1="-23.6464" x2="-9.64645" y2="56.3536" stroke="#2E2E2E"/>
<line x1="70.3536" y1="-17.6464" x2="-9.64645" y2="62.3536" stroke="#2E2E2E"/>
<line x1="70.3536" y1="-11.6464" x2="-9.64645" y2="68.3536" stroke="#2E2E2E"/>
<line x1="70.3536" y1="-5.64645" x2="-9.64645" y2="74.3536" stroke="#2E2E2E"/>
<line x1="70.3536" y1="0.353553" x2="-9.64645" y2="80.3536" stroke="#2E2E2E"/>
<line x1="70.3536" y1="6.35355" x2="-9.64645" y2="86.3536" stroke="#2E2E2E"/>
<line x1="70.3536" y1="12.3536" x2="-9.64645" y2="92.3536" stroke="#2E2E2E"/>
<line x1="70.3536" y1="18.3536" x2="-9.64645" y2="98.3536" stroke="#2E2E2E"/>
<line x1="70.3536" y1="24.3536" x2="-9.64645" y2="104.354" stroke="#2E2E2E"/>
<line x1="70.3536" y1="30.3536" x2="-9.64645" y2="110.354" stroke="#2E2E2E"/>
<line x1="70.3536" y1="36.3536" x2="-9.64645" y2="116.354" stroke="#2E2E2E"/>
<line x1="70.3536" y1="42.3536" x2="-9.64645" y2="122.354" stroke="#2E2E2E"/>
<line x1="70.3536" y1="48.3536" x2="-9.64645" y2="128.354" stroke="#2E2E2E"/>
<line x1="70.3536" y1="54.3536" x2="-9.64645" y2="134.354" stroke="#2E2E2E"/>
</g>
<defs>
<clipPath id="clip0_78_28">
<rect width="60" height="60" fill="white"/>
</clipPath>
</defs>
</svg>
