<svg width="285" height="82" viewBox="0 0 285 82" fill="none" xmlns="http://www.w3.org/2000/svg">
<path d="M93.105 15.4919V5.68579H142.442V15.4919H123.398V73.5364H112.346V15.4919H93.105Z" fill="white"/>
<path d="M172.663 64.6217L175.426 64.3245L175.623 72.3477C168.124 73.8665 161.48 74.6259 155.691 74.6259C148.389 74.6259 143.126 72.6119 139.903 68.5838C136.745 64.5557 135.166 58.1173 135.166 49.2686C135.166 31.7034 142.304 22.9208 156.579 22.9208C170.393 22.9208 177.3 30.4818 177.3 45.6037L176.61 53.3298H146.021C146.086 57.4239 146.974 60.4285 148.685 62.3435C150.395 64.2585 153.586 65.216 158.256 65.216C162.927 65.216 167.729 65.0179 172.663 64.6217ZM166.742 45.0094C166.742 40.1228 165.953 36.7221 164.374 34.8071C162.861 32.826 160.263 31.8355 156.579 31.8355C152.895 31.8355 150.198 32.859 148.487 34.9061C146.843 36.9532 145.988 40.321 145.922 45.0094H166.742Z" fill="white"/>
<path d="M182.709 73.5364V24.0104H193.366V29.9535C198.957 26.3216 204.549 23.9774 210.14 22.9208V33.7175C204.483 34.8401 199.648 36.2928 195.635 38.0758L193.464 38.9672V73.5364H182.709Z" fill="white"/>
<path d="M213.429 73.5364V24.0104H224.086V29.9535C229.677 26.3216 235.269 23.9774 240.86 22.9208V33.7175C235.203 34.8401 230.368 36.2928 226.355 38.0758L224.185 38.9672V73.5364H213.429Z" fill="white"/>
<path d="M280.659 39.2644V61.8482C280.724 63.301 281.086 64.3906 281.744 65.117C282.468 65.7773 283.553 66.2065 285 66.4046L284.704 74.6259C279.047 74.6259 274.672 73.4043 271.581 70.961C266.318 73.4043 261.022 74.6259 255.694 74.6259C245.892 74.6259 240.992 69.3762 240.992 58.8767C240.992 53.858 242.307 50.2261 244.938 47.981C247.636 45.7358 251.747 44.3821 257.273 43.9198L270.002 42.8303V39.2644C270.002 36.623 269.41 34.774 268.226 33.7175C267.107 32.6609 265.43 32.1327 263.193 32.1327C258.983 32.1327 253.721 32.3968 247.405 32.9251L244.248 33.1232L243.853 25.4962C251.023 23.7793 257.602 22.9208 263.588 22.9208C269.64 22.9208 273.982 24.2415 276.613 26.8829C279.31 29.4583 280.659 33.5854 280.659 39.2644ZM258.556 51.5468C254.017 51.943 251.747 54.4193 251.747 58.9757C251.747 63.5321 253.753 65.8103 257.766 65.8103C261.055 65.8103 264.542 65.282 268.226 64.2255L270.002 63.6312V50.4573L258.556 51.5468Z" fill="white"/>
<path fill-rule="evenodd" clip-rule="evenodd" d="M63.2544 0C71.8408 0 79.0047 6.09058 80.6615 14.1872C80.8981 15.3439 81.0224 16.5415 81.0224 17.7681V63.2544C81.0224 73.0674 73.0674 81.0224 63.2544 81.0224H17.7681C15.8254 81.0224 13.9555 80.7107 12.2057 80.1344C5.11706 77.7999 0 71.1247 0 63.2544V17.7681C0 7.95504 7.95504 0 17.7681 0H63.2544ZM56.0477 5.68579H63.2544C69.1428 5.68579 74.0475 9.89821 75.1192 15.474C71.6994 15.8615 67.7907 15.5024 63.6632 13.7335C60.0053 12.1658 57.5791 9.26146 56.0477 5.68579ZM39.1773 5.68579H49.9766C51.7708 11.0869 55.2082 16.2959 61.4235 18.9595C66.4091 21.0962 71.1441 21.5919 75.3367 21.1755V26.9852C69.6442 28.7872 63.9719 29.5165 59.4331 28.188C57.1787 27.5282 54.592 25.7763 51.8083 23.0205C49.0627 20.3023 46.323 16.8063 43.7358 12.9849C42.1281 10.6102 40.5971 8.1364 39.1773 5.68579ZM32.6473 5.68579H25.1235C25.4664 12.1197 23.9505 19.9785 18.3112 27.9399C14.575 33.2145 10.1569 36.1157 5.68579 37.4114V48.7462C8.37989 47.11 11.5515 44.8756 15.2648 41.8586C24.0386 34.7299 30.9491 31.8935 36.1891 31.3747C41.399 30.8588 45.1022 32.666 46.7337 34.95C48.4463 37.3477 49.4145 40.5609 49.7789 43.9499C50.1477 47.3798 49.9229 51.2053 49.0579 55.002C47.3381 62.5499 42.9724 70.4066 35.1073 74.6417C34.6791 74.8723 34.2469 75.104 33.8113 75.3367H42.6489C46.1055 70.9488 48.8712 66.5892 49.8632 63.1724C50.9829 59.3158 51.4425 55.2271 51.8723 51.4043L51.8724 51.4036L51.8725 51.4027C52.0269 50.0297 52.1774 48.6908 52.3532 47.4095C52.658 45.189 53.0785 42.8365 53.9821 41.1402C54.4604 40.2425 55.22 39.2431 56.4428 38.6661C57.7301 38.0588 59.0694 38.1333 60.2442 38.5249C63.5375 39.6227 67.9157 39.8501 75.3367 37.9913V32.9196C69.6141 34.5321 63.3741 35.2658 57.8359 33.6449C54.2623 32.599 50.8701 30.0924 47.8081 27.0611C44.7081 23.992 41.7353 20.172 39.0276 16.1725C36.7114 12.7514 34.5553 9.14838 32.6473 5.68579ZM75.3367 43.839C68.2669 45.4572 63.1831 45.3897 58.8835 44.0594C58.5657 44.8033 58.269 46.1227 57.9862 48.1827C57.8458 49.2059 57.7154 50.3694 57.5744 51.6273L57.5742 51.6283C57.1348 55.5488 56.5925 60.3868 55.3235 64.7577C54.3508 68.1081 52.2474 71.7885 49.7466 75.3367H55.4671C56.522 72.7129 57.4939 70.214 58.257 68.1135C59.077 65.8565 59.5908 64.2334 59.756 63.4073C60.0698 61.8385 60.6675 60.1509 62.0694 58.9542C63.5276 57.7094 65.3188 57.4423 66.9968 57.5276C68.6492 57.6116 70.5866 58.0566 72.7723 58.6835C73.5671 58.9115 74.4212 59.1716 75.3367 59.4604V43.839ZM75.1518 65.3717C73.6676 64.8898 72.3618 64.4808 71.2047 64.1489C69.0928 63.5432 67.6765 63.2553 66.7081 63.206C66.0828 63.1742 65.8297 63.2512 65.7571 63.2837C65.7163 63.3318 65.5145 63.6071 65.3314 64.5224C65.0702 65.8285 64.4083 67.833 63.601 70.055C63.0215 71.6502 62.3329 73.4485 61.5877 75.3367H63.2544C69.2049 75.3367 74.1507 71.035 75.1518 65.3717ZM21.5433 75.3367C25.2667 73.4164 29.025 71.4591 32.4117 69.6355C38.4057 66.4079 42.0357 60.2279 43.5141 53.7389C44.2482 50.5173 44.4232 47.3244 44.1257 44.5577C43.8238 41.7501 43.0596 39.5885 42.107 38.2548C41.9617 38.0514 40.5122 36.6602 36.7493 37.0328C33.0163 37.4024 27.1338 39.541 18.8502 46.2714C13.6649 50.4845 9.32548 53.3712 5.68579 55.2794V61.6918C6.58303 60.8707 7.59618 60.1849 8.53246 59.5997C9.48635 59.0036 10.5257 58.4172 11.5471 57.8444L11.8003 57.7025C12.7545 57.1677 13.7015 56.6369 14.6419 56.0736C16.6991 54.8415 18.5489 53.5545 19.9713 52.0571C22.434 49.4645 25.9884 46.3701 29.3302 44.2578C30.9788 43.2158 32.7593 42.294 34.4391 41.8708C36.0156 41.4737 38.4602 41.3121 40.1635 43.2593C41.7844 45.1123 42.4563 47.8915 41.2755 51.4986C40.1541 54.9244 37.3375 59.2505 31.8934 64.8761C26.2422 70.7156 20.5908 73.6409 15.8262 74.573C15.2889 74.6782 14.7603 74.7583 14.2423 74.8141C15.3577 75.1539 16.5415 75.3367 17.7681 75.3367H21.5433ZM5.68579 31.3954C8.44052 30.2528 11.1849 28.1639 13.6714 24.6535C18.5813 17.7219 19.7677 11.0007 19.4299 5.68579H17.7681C11.0952 5.68579 5.68579 11.0952 5.68579 17.7681V31.3954ZM65.7515 63.2862C65.7382 63.2926 65.7327 63.2967 65.7333 63.2972C65.7337 63.2975 65.7368 63.2963 65.7419 63.293L65.7454 63.2907L65.7515 63.2862ZM32.3681 49.064C29.505 50.8737 26.3072 53.6427 24.0937 55.9729C22.1405 58.0292 19.7705 59.6295 17.5634 60.9514C16.5491 61.5589 15.532 62.1289 14.5893 62.6573L14.3282 62.8036C13.2951 63.383 12.3688 63.907 11.5458 64.4214C9.77114 65.5304 9.02924 66.276 8.79672 66.7534C8.73006 66.8903 8.72212 66.9688 8.74267 67.0883C8.77192 67.2584 8.8943 67.6513 9.38119 68.3005L9.42852 68.3636L9.47233 68.4293C9.47505 68.433 9.53906 68.5213 9.74253 68.6458C9.95268 68.7743 10.278 68.9199 10.7401 69.0335C11.6686 69.262 13.0203 69.3284 14.7346 68.993C18.1435 68.3261 22.7978 66.0988 27.8075 60.922C33.0243 55.5314 35.146 51.9471 35.8719 49.7297C36.304 48.4096 36.2155 47.6946 36.0774 47.3293C36.0081 47.342 35.9255 47.3598 35.8281 47.3843C35.0071 47.5912 33.822 48.1451 32.3681 49.064ZM36.3832 47.3025C36.382 47.304 36.365 47.3042 36.3362 47.2986C36.3701 47.2982 36.3845 47.301 36.3832 47.3025Z" fill="white"/>
</svg>
