<svg width="308" height="78" viewBox="0 0 308 78" fill="none" xmlns="http://www.w3.org/2000/svg">
<path d="M118.068 21.5006V76.9999H104.549V54.1519H83.519V76.9999H70V21.5006H83.519V43.2418H104.549V21.5006H118.068Z" fill="white"/>
<path d="M131.464 28.2997C129.092 28.2997 127.142 27.6145 125.613 26.2442C124.138 24.8211 123.4 23.0818 123.4 21.0263C123.4 18.9181 124.138 17.1788 125.613 15.8084C127.142 14.3854 129.092 13.6738 131.464 13.6738C133.783 13.6738 135.68 14.3854 137.156 15.8084C138.685 17.1788 139.449 18.9181 139.449 21.0263C139.449 23.0818 138.685 24.8211 137.156 26.2442C135.68 27.6145 133.783 28.2997 131.464 28.2997ZM138.184 32.8851V76.9999H124.665V32.8851H138.184Z" fill="white"/>
<path d="M169.406 65.5364V76.9999H162.528C157.626 76.9999 153.805 75.814 151.064 73.4422C148.324 71.0178 146.953 67.0912 146.953 61.6625V44.1114H141.577V32.8851H146.953V22.1331H160.472V32.8851H169.327V44.1114H160.472V61.8206C160.472 63.1382 160.788 64.087 161.421 64.6667C162.053 65.2465 163.108 65.5364 164.583 65.5364H169.406Z" fill="white"/>
<path d="M215.359 54.231C215.359 55.4959 215.28 56.8135 215.122 58.1839H184.526C184.737 60.9246 185.606 63.0328 187.135 64.5086C188.716 65.9317 190.64 66.6432 192.906 66.6432C196.279 66.6432 198.625 65.2201 199.942 62.374H214.331C213.593 65.2728 212.249 67.8818 210.299 70.2008C208.402 72.5199 206.003 74.3382 203.105 75.6559C200.206 76.9735 196.964 77.6323 193.38 77.6323C189.059 77.6323 185.211 76.71 181.838 74.8653C178.465 73.0206 175.829 70.3853 173.932 66.9594C172.035 63.5335 171.086 59.5279 171.086 54.9425C171.086 50.3571 172.008 46.3514 173.853 42.9256C175.75 39.4997 178.386 36.8644 181.759 35.0197C185.132 33.175 189.006 32.2526 193.38 32.2526C197.65 32.2526 201.444 33.1486 204.765 34.9406C208.085 36.7326 210.668 39.2889 212.513 42.6093C214.41 45.9298 215.359 49.8037 215.359 54.231ZM201.523 50.6733C201.523 48.3543 200.733 46.5096 199.152 45.1392C197.571 43.7689 195.594 43.0837 193.222 43.0837C190.956 43.0837 189.032 43.7425 187.451 45.0601C185.923 46.3778 184.974 48.2488 184.605 50.6733H201.523Z" fill="white"/>
<path d="M216.64 54.9425C216.64 50.3571 217.563 46.3514 219.407 42.9256C221.305 39.4997 223.914 36.8644 227.234 35.0197C230.607 33.175 234.455 32.2526 238.777 32.2526C244.311 32.2526 248.923 33.702 252.612 36.6009C256.354 39.4997 258.805 43.5844 259.965 48.855H245.576C244.364 45.4818 242.018 43.7952 238.54 43.7952C236.062 43.7952 234.086 44.7703 232.61 46.7204C231.134 48.6178 230.397 51.3585 230.397 54.9425C230.397 58.5265 231.134 61.2935 232.61 63.2437C234.086 65.1411 236.062 66.0898 238.54 66.0898C242.018 66.0898 244.364 64.4032 245.576 61.03H259.965C258.805 66.1952 256.354 70.2535 252.612 73.2051C248.87 76.1566 244.258 77.6323 238.777 77.6323C234.455 77.6323 230.607 76.71 227.234 74.8653C223.914 73.0206 221.305 70.3853 219.407 66.9594C217.563 63.5335 216.64 59.5279 216.64 54.9425Z" fill="white"/>
<path d="M291.151 32.4107C296.211 32.4107 300.269 34.0973 303.326 37.4705C306.383 40.791 307.911 45.3764 307.911 51.2267V76.9999H294.471V53.0451C294.471 50.0936 293.707 47.8008 292.179 46.167C290.65 44.5331 288.595 43.7161 286.012 43.7161C283.429 43.7161 281.374 44.5331 279.845 46.167C278.317 47.8008 277.553 50.0936 277.553 53.0451V76.9999H264.034V18.4964H277.553V38.8145C278.923 36.8644 280.794 35.3096 283.166 34.15C285.538 32.9905 288.199 32.4107 291.151 32.4107Z" fill="white"/>
<path d="M2.09769e-06 47.9896L0 0H16L16 24.669C18.7926 23.591 21.8273 23 25 23C38.8071 23 50 34.1929 50 48V77H34V48C34 43.0294 29.9706 39 25 39C20.0316 39 16.0036 43.0259 16 47.9934C16 47.9956 16 47.9978 16 48L16 77H3.36578e-06L0 48C0 47.9965 6.99275e-07 47.9931 2.09769e-06 47.9896Z" fill="white"/>
<path d="M34 16V0H50V16L34 16Z" fill="white"/>
</svg>
