<svg width="240" height="73" viewBox="0 0 240 73" fill="none" xmlns="http://www.w3.org/2000/svg">
<path d="M141.799 65.8788C141.799 66.68 142.469 67.3186 143.269 67.2804L155.139 66.7131C155.887 66.6773 156.475 66.0604 156.475 65.3115V27.801C156.475 27.0041 155.812 26.3671 155.016 26.399L143.146 26.8738C142.393 26.9039 141.799 27.5227 141.799 28.2758V65.8788Z" fill="white"/>
<path d="M143.644 19.3798C145.098 20.8335 146.915 21.5603 149.095 21.5603C151.387 21.5603 153.232 20.8335 154.63 19.3798C156.084 17.8703 156.811 15.9973 156.811 13.7609C156.811 11.5804 156.084 9.73535 154.63 8.22578C153.232 6.71621 151.387 5.96143 149.095 5.96143C146.915 5.96143 145.098 6.71621 143.644 8.22578C142.19 9.73535 141.463 11.5804 141.463 13.7609C141.463 15.9973 142.19 17.8703 143.644 19.3798Z" fill="white"/>
<path fill-rule="evenodd" clip-rule="evenodd" d="M106.484 43.2814V63.6695C106.484 64.345 106.003 64.9246 105.339 65.0488L93.1336 67.3304C92.2703 67.4918 91.4727 66.8294 91.4727 65.9512V9.29346C91.4727 8.51853 92.1009 7.89032 92.8758 7.89032H116.8C120.825 7.89032 124.348 8.64511 127.367 10.1547C130.442 11.6642 132.846 13.7329 134.579 16.3607C136.312 18.9885 137.179 22.0635 137.179 25.5858C137.179 29.1082 136.285 32.2112 134.495 34.8949C132.762 37.5226 130.33 39.5913 127.199 41.1009C125.845 41.7297 124.391 42.2226 122.838 42.5794L138.758 64.2494C139.534 65.3044 138.569 66.7523 137.297 66.4438L124.137 63.2528C123.839 63.1804 123.572 63.012 123.378 62.7734L107.558 43.2814H106.484ZM106.484 32.5466H114.703C117.163 32.5466 119.036 31.9596 120.322 30.7855C121.664 29.5555 122.335 27.9061 122.335 25.8374C122.335 23.8247 121.664 22.2033 120.322 20.9733C119.036 19.6873 117.163 19.0444 114.703 19.0444H106.484V32.5466Z" fill="white"/>
<path d="M176.384 68.5247C173.868 68.5247 171.38 68.1893 168.92 67.5183C166.516 66.8474 164.252 65.9529 162.127 64.8347C160.502 63.9124 159.067 62.8867 157.821 61.7575C157.259 61.2478 157.266 60.3778 157.797 59.8356L163.798 53.7081C164.352 53.1423 165.26 53.1531 165.864 53.6651C166.965 54.598 168.207 55.358 169.591 55.945C171.492 56.7277 173.505 57.1191 175.629 57.1191C176.859 57.1191 177.782 56.9514 178.397 56.6159C179.068 56.2804 179.403 55.8052 179.403 55.1902C179.403 54.2956 178.928 53.6247 177.977 53.1774C177.083 52.6742 175.881 52.2549 174.371 51.9195C172.918 51.5281 171.38 51.0808 169.759 50.5776C168.137 50.0185 166.572 49.2917 165.062 48.3971C163.553 47.5026 162.323 46.2446 161.372 44.6232C160.478 43.0018 160.03 40.9331 160.03 38.4172C160.03 35.7894 160.729 33.4971 162.127 31.5403C163.581 29.5275 165.593 27.962 168.165 26.8438C170.737 25.6697 173.756 25.0827 177.223 25.0827C180.745 25.0827 184.1 25.6977 187.286 26.9277C189.997 27.9263 192.719 29.8607 194.677 31.8959C195.224 32.4653 195.117 33.3715 194.491 33.8532L187.549 39.1927C186.966 39.6417 186.144 39.5506 185.597 39.0581C184.644 38.2002 183.743 37.7534 182.506 37.3269C180.885 36.7119 179.403 36.4044 178.061 36.4044C176.775 36.4044 175.853 36.6001 175.294 36.9915C174.735 37.3269 174.455 37.8022 174.455 38.4172C174.455 39.144 174.902 39.7311 175.797 40.1784C176.747 40.6256 177.949 41.045 179.403 41.4363C180.913 41.7718 182.45 42.2191 184.016 42.7782C185.637 43.3373 187.175 44.12 188.628 45.1264C190.138 46.0769 191.34 47.3628 192.234 48.9842C193.185 50.6056 193.66 52.7022 193.66 55.2741C193.66 59.3555 192.095 62.5983 188.964 65.0024C185.833 67.3506 181.64 68.5247 176.384 68.5247Z" fill="white"/>
<path fill-rule="evenodd" clip-rule="evenodd" d="M204.622 65.5895C208.144 67.3786 212.197 68.2731 216.782 68.2731C220.416 68.2731 223.659 67.6861 226.51 66.512C228.998 65.5074 231.158 64.0937 232.99 62.2707C233.515 61.749 233.484 60.9055 232.961 60.3825L227.316 54.7381C226.743 54.1653 225.811 54.2026 225.211 54.7468C224.251 55.6174 223.202 56.2964 222.066 56.7836C220.556 57.4545 218.795 57.79 216.782 57.79C214.657 57.79 212.868 57.3707 211.415 56.532C209.961 55.6934 208.843 54.4634 208.06 52.842C207.868 52.4313 207.7 52.0006 207.556 51.5498L235.232 51.4213C235.874 51.4183 236.437 50.9817 236.563 50.3528C236.701 49.6663 236.788 49.0423 236.826 48.481C236.938 47.5864 236.994 46.7198 236.994 45.8812C236.994 41.9116 236.071 38.3892 234.226 35.3142C232.437 32.1832 229.921 29.7511 226.678 28.0179C223.491 26.2288 219.829 25.3342 215.692 25.3342C211.443 25.3342 207.613 26.2847 204.202 28.1857C200.848 30.0307 198.192 32.5746 196.235 35.8174C194.278 39.0042 193.3 42.6663 193.3 46.8037C193.3 50.9969 194.306 54.715 196.319 57.9577C198.332 61.2005 201.099 63.7444 204.622 65.5895ZM207.525 42.1302C207.655 41.7127 207.806 41.3137 207.976 40.9331C208.703 39.3117 209.737 38.0538 211.079 37.1592C212.421 36.2647 214.014 35.8174 215.86 35.8174C217.649 35.8174 219.13 36.2087 220.304 36.9915C221.479 37.7742 222.373 38.9204 222.988 40.4299C223.19 40.9073 223.362 41.43 223.504 41.9978L207.525 42.1302Z" fill="white"/>
<path d="M219.688 19.5098V8.68559H222.44V19.5098H219.688ZM216.351 10.9765V8.60871H225.776V10.9765H216.351ZM226.259 19.5098V8.60871H228.243L232.425 14.9279H231.487L235.654 8.60871H237.637V19.5098H234.916V13.1598L235.346 13.2828L232.84 17.0497H231.057L228.566 13.2828L228.996 13.1598V19.5098H226.259Z" fill="white"/>
<path d="M19.8022 2.88807C19.8022 2.05584 20.4219 1.35385 21.2477 1.25063L31.1488 0.0129861C32.1338 -0.110129 33.0037 0.657845 33.0037 1.65043V34.2159C33.0037 35.2085 32.1338 35.9765 31.1488 35.8534L21.2477 34.6157C20.4219 34.5125 19.8022 33.8105 19.8022 32.9783V2.88807Z" fill="white"/>
<path d="M0 7.01353C0 6.1813 0.619705 5.47931 1.44551 5.37609L11.3466 4.13845C12.3315 4.01534 13.2015 4.78331 13.2015 5.77589V31.7406C13.2015 32.7332 12.3315 33.5012 11.3466 33.3781L1.4455 32.1404C0.619704 32.0372 0 31.3352 0 30.503V7.01353Z" fill="white"/>
<path d="M51.556 2.76901C52.2906 2.95266 52.8059 3.61271 52.8059 4.36992V18.1266C52.8059 18.9588 52.1862 19.6608 51.3604 19.764L41.4593 21.0017C40.4744 21.1248 39.6045 20.3568 39.6045 19.3642V1.89465C39.6045 0.821084 40.6134 0.033354 41.6549 0.293731L51.556 2.76901Z" fill="white"/>
<path d="M70.958 8.49539C70.958 7.73817 70.4426 7.07813 69.708 6.89447L59.8069 4.4192C58.7654 4.15882 57.7565 4.94655 57.7565 6.02011V18.5391C57.7565 19.5317 58.6264 20.2997 59.6114 20.1766L69.5125 18.9389C70.3383 18.8357 70.958 18.1337 70.958 17.3015V8.49539Z" fill="white"/>
<path d="M70.958 25.359L38.7794 26.1841C39.2449 32.2366 44.2919 36.9103 50.3623 36.9103H57.7565V43.9332L0 38.5605V72.9632L70.958 68.0126V25.359Z" fill="white"/>
</svg>
