<svg width="289" height="83" viewBox="0 0 289 83" fill="none" xmlns="http://www.w3.org/2000/svg">
<path d="M136.546 49.7467V79H146.05V47.8457C146.05 43.9031 145.205 40.418 143.516 37.3906C141.826 34.3632 139.503 32.0046 136.546 30.3149C133.659 28.6252 130.315 27.7803 126.513 27.7803C122.711 27.7803 119.296 28.6604 116.269 30.4205C113.989 31.6933 112.088 33.3257 110.566 35.3175V3.59619H101.062V79H110.566V49.7467C110.566 47.2121 111.129 44.9591 112.256 42.9878C113.382 41.0165 114.931 39.4676 116.903 38.3411C118.874 37.2146 121.127 36.6514 123.662 36.6514C127.463 36.6514 130.561 37.8834 132.955 40.3476C135.349 42.8118 136.546 45.9448 136.546 49.7467Z" fill="white"/>
<path d="M162.721 77.3102C166.03 79.1408 169.761 80.056 173.915 80.056C178.139 80.056 181.836 79.1408 185.004 77.3102C188.242 75.4093 190.777 72.8043 192.608 69.4953C194.438 66.1863 195.353 62.3492 195.353 57.9841V28.8364H185.849V57.5616C185.849 61.7155 184.793 64.9894 182.68 67.3831C180.568 69.7065 177.647 70.8682 173.915 70.8682C171.451 70.8682 169.304 70.3401 167.473 69.2841C165.642 68.228 164.234 66.7143 163.249 64.743C162.333 62.7012 161.876 60.3074 161.876 57.5616V28.8364H152.371V57.9841C152.371 62.3492 153.286 66.1863 155.117 69.4953C156.947 72.8043 159.482 75.4093 162.721 77.3102Z" fill="white"/>
<path fill-rule="evenodd" clip-rule="evenodd" d="M226.046 80.056C221.047 80.056 216.541 78.9296 212.528 76.6766C208.515 74.3532 205.346 71.2202 203.023 67.2775C200.7 63.3349 199.538 58.8641 199.538 53.8654C199.538 48.937 200.665 44.5015 202.918 40.5588C205.241 36.6161 208.339 33.5183 212.211 31.2654C216.154 28.942 220.554 27.7803 225.412 27.7803C230.059 27.7803 234.142 28.8364 237.662 30.9485C241.253 33.0607 244.034 35.9825 246.005 39.714C248.047 43.4454 249.068 47.6697 249.068 52.3869C249.068 53.0909 249.033 53.8654 248.962 54.7102C248.892 55.4847 248.751 56.4 248.54 57.456H209.255C209.59 59.4095 210.188 61.2049 211.049 62.842C212.457 65.447 214.464 67.4888 217.069 68.9673C219.674 70.3754 222.666 71.0794 226.046 71.0794C228.862 71.0794 231.432 70.5866 233.755 69.6009C236.149 68.6152 238.19 67.1367 239.88 65.1654L246.005 71.3962C243.612 74.2124 240.655 76.3598 237.134 77.8383C233.685 79.3168 229.988 80.056 226.046 80.056ZM210.944 44.5719C210.155 46.0672 209.598 47.7217 209.275 49.5355H239.804C239.545 47.4592 239.007 45.6287 238.19 44.0439C236.994 41.6501 235.304 39.8196 233.121 38.5523C230.939 37.2146 228.299 36.5457 225.201 36.5457C221.962 36.5457 219.111 37.2498 216.646 38.6579C214.182 40.066 212.281 42.0373 210.944 44.5719Z" fill="white"/>
<path d="M255.207 75.8317C257.319 77.1694 259.608 78.2255 262.072 79C264.606 79.704 267.282 80.056 270.098 80.056C275.73 80.056 280.201 78.6831 283.51 75.9373C286.89 73.1916 288.579 69.4601 288.579 64.743C288.579 61.6451 287.91 59.1458 286.573 57.2448C285.305 55.3439 283.651 53.8302 281.609 52.7037C279.567 51.5772 277.42 50.6972 275.167 50.0635C272.914 49.3595 270.732 48.6906 268.619 48.057C266.578 47.4233 264.923 46.6489 263.656 45.7336C262.389 44.8183 261.755 43.5158 261.755 41.8261C261.755 40.1364 262.459 38.8339 263.867 37.9186C265.346 36.933 267.458 36.4401 270.204 36.4401C272.809 36.4401 275.132 36.933 277.174 37.9186C279.286 38.9043 281.046 40.3124 282.454 42.1429L288.579 36.0177C286.608 33.2719 284.073 31.2302 280.976 29.8925C277.948 28.4844 274.463 27.7803 270.52 27.7803C266.789 27.7803 263.585 28.3788 260.91 29.5756C258.305 30.7725 256.263 32.4975 254.785 34.7504C253.306 36.933 252.567 39.538 252.567 42.5654C252.567 45.5928 253.201 48.0218 254.468 49.8523C255.806 51.6828 257.495 53.1261 259.537 54.1822C261.579 55.2383 263.726 56.1183 265.979 56.8224C268.303 57.456 270.485 58.1249 272.527 58.8289C274.569 59.4626 276.223 60.3074 277.49 61.3635C278.828 62.3492 279.497 63.7573 279.497 65.5878C279.497 67.4183 278.687 68.8616 277.068 69.9177C275.449 70.9034 273.161 71.3962 270.204 71.3962C267.247 71.3962 264.571 70.8682 262.177 69.8121C259.784 68.6856 257.671 66.9959 255.841 64.743L249.716 70.8682C251.265 72.7691 253.095 74.4236 255.207 75.8317Z" fill="white"/>
<path d="M279.682 11.9933V13.8649H277.429V19.559H275.29V13.8649H273.037V11.9933H279.682Z" fill="white"/>
<path d="M288.463 11.8799V19.5931H286.325V15.8499L284.758 17.6081H284.117L282.55 15.8499V19.5931H280.412V11.8799H281.167L284.438 15.1693L287.709 11.8799H288.463Z" fill="white"/>
<path d="M9.91293 24.3034C12.8728 33.7936 22.9656 39.0876 32.4558 36.1278C41.9461 33.168 64.4238 17.7159 61.464 8.22566C58.5041 -1.26463 31.2277 -1.19938 21.7374 1.76045C12.2471 4.72027 6.95311 14.8131 9.91293 24.3034Z" fill="white"/>
<path d="M4.17773 76.3423C9.74805 81.9126 18.7783 81.9126 24.3486 76.3423C29.9189 70.772 40.0039 51.6558 34.4346 46.0854C28.8643 40.5156 9.74805 50.6011 4.17773 56.1709C-1.39258 61.7412 -1.39258 70.772 4.17773 76.3423Z" fill="white"/>
<path d="M57.4783 81.8188C67.0808 84.3916 76.9509 78.6934 79.5242 69.0908C82.0965 59.4883 81.0574 32.2319 71.4549 29.6587C61.8523 27.0859 47.324 50.1709 44.7508 59.7734C42.1775 69.3755 47.8758 79.2456 57.4783 81.8188Z" fill="white"/>
</svg>
